<svg xmlns="http://www.w3.org/2000/svg" xmlns:xlink="http://www.w3.org/1999/xlink" width="500" zoomAndPan="magnify" viewBox="0 0 375 374.999991" height="500" preserveAspectRatio="xMidYMid meet" version="1.0"><defs><clipPath id="fdfc2bb96e"><path d="M 180 44.734375 L 195 44.734375 L 195 69 L 180 69 Z M 180 44.734375 " clip-rule="nonzero"/></clipPath><clipPath id="8ce8760e91"><path d="M 71.324219 140 L 83 140 L 83 152 L 71.324219 152 Z M 71.324219 140 " clip-rule="nonzero"/></clipPath><clipPath id="4c6721447f"><path d="M 289 144 L 303.824219 144 L 303.824219 154 L 289 154 Z M 289 144 " clip-rule="nonzero"/></clipPath></defs><rect x="-37.5" width="450" fill="#ffffff" y="-37.499999" height="449.999989" fill-opacity="1"/><rect x="-37.5" width="450" fill="#ffffff" y="-37.499999" height="449.999989" fill-opacity="1"/><g clip-path="url(#fdfc2bb96e)"><path fill="#627444" d="M 180.113281 56.5 C 180.113281 51.480469 184.617188 48.34375 187.46875 44.808594 C 190.375 48.289062 194.539062 51.59375 194.765625 56.5 C 195.222656 61.742188 190.375 64.992188 187.410156 68.644531 C 184.503906 64.992188 179.714844 61.742188 180.113281 56.5 Z M 180.113281 56.5 " fill-opacity="1" fill-rule="nonzero"/></g><path fill="#627444" d="M 145.046875 69.726562 C 144.25 61.859375 150.691406 56.328125 155.140625 50.796875 C 160.5 55.585938 167.742188 60.089844 168.253906 68.015625 C 169.109375 76.054688 162.550781 81.699219 157.992188 87.34375 C 152.6875 82.382812 145.273438 77.765625 145.046875 69.726562 Z M 145.046875 69.726562 " fill-opacity="1" fill-rule="nonzero"/><path fill="#627444" d="M 206.511719 67.84375 C 207.140625 59.976562 214.324219 55.472656 219.742188 50.796875 C 224.1875 56.269531 230.800781 61.742188 229.777344 69.613281 C 229.660156 77.652344 222.136719 82.269531 216.890625 87.171875 C 212.15625 81.644531 205.542969 76 206.511719 67.84375 Z M 206.511719 67.84375 " fill-opacity="1" fill-rule="nonzero"/><path fill="#627444" d="M 125.261719 61.117188 C 128.285156 62.257812 132.046875 62.828125 133.871094 65.847656 C 134.957031 69.097656 133.929688 72.578125 133.816406 75.941406 C 130.164062 75.714844 126.859375 74.230469 123.835938 72.347656 C 124.179688 68.585938 124.636719 64.824219 125.261719 61.117188 Z M 125.261719 61.117188 " fill-opacity="1" fill-rule="nonzero"/><path fill="#627444" d="M 241.007812 65.792969 C 242.890625 63.28125 246.027344 62.144531 248.589844 60.433594 C 250.015625 64.136719 250.871094 68.074219 251.101562 72.121094 C 248.078125 74.003906 244.769531 75.484375 241.238281 76.226562 C 241.007812 72.804688 239.867188 69.15625 241.007812 65.792969 Z M 241.007812 65.792969 " fill-opacity="1" fill-rule="nonzero"/><path fill="#627444" d="M 103.082031 89.738281 C 104.621094 85.804688 107.871094 82.953125 110.4375 79.761719 C 113.914062 83.410156 119.105469 86.945312 118.363281 92.761719 C 118.476562 98.007812 113.574219 101.027344 110.496094 104.507812 C 106.902344 100.402344 101.429688 95.953125 103.082031 89.738281 Z M 103.082031 89.738281 " fill-opacity="1" fill-rule="nonzero"/><path fill="#627444" d="M 256.117188 92.589844 C 255.945312 87.003906 260.90625 83.351562 264.386719 79.703125 C 267.523438 83.921875 273.050781 87.914062 271.910156 93.902344 C 270.886719 98.292969 267.007812 101.199219 264.214844 104.5625 C 260.964844 101.027344 256.402344 97.835938 256.117188 92.589844 Z M 256.117188 92.589844 " fill-opacity="1" fill-rule="nonzero"/><path fill="#627444" d="M 133.871094 92.363281 C 142.367188 96.636719 152.746094 101.828125 154.398438 112.261719 C 156.792969 122.183594 149.609375 130.449219 144.648438 138.148438 C 136.265625 133.300781 125.375 128.285156 124.351562 117.335938 C 122.296875 107.644531 129.367188 100.003906 133.871094 92.363281 Z M 133.871094 92.363281 " fill-opacity="1" fill-rule="nonzero"/><path fill="#627444" d="M 220.367188 112.035156 C 222.136719 101.597656 232.570312 96.808594 240.894531 92.304688 C 243.859375 97.265625 247.453125 101.941406 249.675781 107.359375 C 252.296875 114.941406 250.1875 124.121094 243.917969 129.308594 C 239.695312 132.789062 234.851562 135.410156 230.175781 138.203125 C 225.328125 130.394531 217.746094 122.070312 220.367188 112.035156 Z M 220.367188 112.035156 " fill-opacity="1" fill-rule="nonzero"/><path fill="#627444" d="M 85.804688 94.527344 C 88.714844 94.757812 91.621094 95.097656 94.53125 95.382812 C 95.269531 98.632812 96.011719 101.828125 96.640625 105.132812 C 93.21875 104.734375 89.855469 104.164062 86.488281 103.308594 C 86.203125 100.34375 85.976562 97.4375 85.804688 94.527344 Z M 85.804688 94.527344 " fill-opacity="1" fill-rule="nonzero"/><path fill="#627444" d="M 83.867188 114.199219 C 90.996094 114.3125 99.546875 116.195312 102.683594 123.378906 C 106.558594 129.652344 103.023438 136.949219 101.144531 143.222656 C 95.042969 141 87.402344 140.199219 83.640625 134.15625 C 79.703125 128.054688 82.613281 120.644531 83.867188 114.199219 Z M 83.867188 114.199219 " fill-opacity="1" fill-rule="nonzero"/><path fill="#627444" d="M 272.027344 123.207031 C 275.332031 116.367188 283.542969 115.285156 289.988281 113.058594 C 291.925781 119.617188 295.515625 127.3125 291.355469 133.757812 C 287.875 140.257812 279.894531 141 273.621094 143.277344 C 271.796875 136.894531 268.261719 129.539062 272.027344 123.207031 Z M 272.027344 123.207031 " fill-opacity="1" fill-rule="nonzero"/><path fill="#627444" d="M 112.945312 141.167969 C 110.894531 136.835938 114.085938 132.730469 115.96875 129.023438 C 119.160156 131.761719 124.636719 133.644531 124.636719 138.660156 C 124.179688 141.855469 122.46875 144.648438 121.214844 147.613281 C 118.363281 145.675781 114.769531 144.25 112.945312 141.167969 Z M 112.945312 141.167969 " fill-opacity="1" fill-rule="nonzero"/><path fill="#627444" d="M 250.246094 138.546875 C 250.074219 133.644531 255.433594 131.648438 258.570312 128.910156 C 260.335938 132.332031 263.472656 135.925781 262.160156 140.027344 C 261.023438 144.019531 256.574219 145.390625 253.496094 147.554688 C 252.355469 144.648438 250.417969 141.796875 250.246094 138.546875 Z M 250.246094 138.546875 " fill-opacity="1" fill-rule="nonzero"/><g clip-path="url(#8ce8760e91)"><path fill="#627444" d="M 71.324219 140.941406 C 73.945312 141.738281 77.082031 141.511719 79.304688 143.277344 C 81.53125 145.332031 81.816406 148.582031 82.667969 151.320312 C 79.078125 150.917969 75.542969 150.234375 72.121094 149.09375 C 71.78125 146.359375 71.550781 143.621094 71.324219 140.941406 Z M 71.324219 140.941406 " fill-opacity="1" fill-rule="nonzero"/></g><path fill="#627444" d="M 159.757812 141.683594 C 166.371094 145.046875 174.296875 148.640625 176.40625 156.5625 C 178.972656 164.605469 172.984375 171.558594 169.449219 178.175781 C 163.007812 174.582031 155.140625 171.21875 152.914062 163.519531 C 149.949219 155.425781 156.222656 148.410156 159.757812 141.683594 Z M 159.757812 141.683594 " fill-opacity="1" fill-rule="nonzero"/><path fill="#627444" d="M 198.300781 156.90625 C 200.070312 148.753906 208.394531 145.105469 215.066406 141.738281 C 218.886719 148.582031 225.214844 156.222656 221.566406 164.488281 C 219.113281 171.730469 211.585938 174.753906 205.371094 178.117188 C 201.609375 171.675781 196.136719 164.890625 198.300781 156.90625 Z M 198.300781 156.90625 " fill-opacity="1" fill-rule="nonzero"/><g clip-path="url(#4c6721447f)"><path fill="#627444" d="M 289.300781 152.34375 C 291.070312 148.753906 293.636719 145.730469 297.398438 144.191406 C 299.453125 145.105469 301.5625 145.960938 303.671875 146.871094 C 302.300781 148.925781 300.878906 150.976562 299.507812 153.027344 C 296.085938 152.859375 292.667969 152.628906 289.300781 152.34375 Z M 289.300781 152.34375 " fill-opacity="1" fill-rule="nonzero"/></g><path fill="#627444" d="M 276.015625 106.84375 C 277.042969 103.023438 278.980469 99.488281 282.347656 97.265625 C 284.570312 97.722656 286.792969 98.179688 289.015625 98.632812 C 288.046875 100.914062 287.078125 103.195312 286.109375 105.476562 C 282.746094 106.046875 279.382812 106.503906 276.015625 106.84375 Z M 276.015625 106.84375 " fill-opacity="1" fill-rule="nonzero"/><path fill="#627444" d="M 76.570312 160.328125 C 83.753906 163.007812 92.363281 165.34375 95.5 173.15625 C 99.320312 179.542969 96.980469 187.070312 95.785156 193.855469 C 89.226562 191.175781 81.246094 189.347656 77.59375 182.566406 C 73.203125 175.949219 75.199219 167.625 76.570312 160.328125 Z M 76.570312 160.328125 " fill-opacity="1" fill-rule="nonzero"/><path fill="#627444" d="M 278.070312 173.15625 C 281.945312 166.714844 289.585938 164.546875 296.203125 162.09375 C 297.226562 168.996094 299.679688 176.519531 295.800781 183.019531 C 292.609375 190.71875 283.886719 192.65625 277.042969 195.679688 C 275.5625 188.324219 273.335938 179.828125 278.070312 173.15625 Z M 278.070312 173.15625 " fill-opacity="1" fill-rule="nonzero"/><path fill="#627444" d="M 259.027344 203.488281 C 261.648438 201.378906 265.125 200.925781 268.261719 199.898438 C 268.375 203.890625 270.429688 208.566406 267.636719 212.042969 C 265.355469 215.292969 261.023438 215.121094 257.601562 216.203125 C 257.542969 212.101562 255.375 206.738281 259.027344 203.488281 Z M 259.027344 203.488281 " fill-opacity="1" fill-rule="nonzero"/><path fill="#627444" d="M 102.167969 204.003906 C 106.105469 204.972656 109.808594 206.511719 113.117188 208.851562 C 112.945312 212.726562 112.71875 216.605469 112.320312 220.425781 C 108.898438 219.113281 104.28125 219.167969 102.226562 215.636719 C 100.003906 212.101562 101.769531 207.765625 102.167969 204.003906 Z M 102.167969 204.003906 " fill-opacity="1" fill-rule="nonzero"/><path fill="#627444" d="M 132.558594 158.273438 C 132.960938 156.5625 132.445312 155.140625 131.589844 153.882812 C 130.050781 151.660156 126.746094 151.71875 125.375 154 C 124.863281 154.855469 124.464844 155.824219 124.351562 156.90625 C 123.324219 164.890625 124.519531 172.929688 126.289062 180.683594 C 129.367188 173.554688 131.707031 165.972656 132.558594 158.273438 Z M 132.558594 158.273438 " fill-opacity="1" fill-rule="nonzero"/><path fill="#627444" d="M 242.261719 158.332031 C 242.433594 156.964844 242.035156 155.765625 241.464844 154.625 C 239.980469 151.890625 236.105469 151.832031 234.621094 154.570312 C 234.222656 155.253906 233.996094 155.996094 234.050781 156.847656 C 234.167969 165.058594 237.015625 172.929688 240.210938 180.398438 C 241.007812 173.15625 242.375 165.746094 242.261719 158.332031 Z M 242.261719 158.332031 " fill-opacity="1" fill-rule="nonzero"/><path fill="#627444" d="M 172.757812 235.535156 C 173.328125 227.722656 176.519531 220.425781 180.398438 213.695312 C 170.648438 199.726562 157.25 188.324219 142.652344 179.769531 C 142.710938 183.703125 142.082031 188.039062 144.589844 191.460938 C 149.09375 198.757812 155.425781 204.628906 160.441406 211.53125 C 158.617188 213.296875 156.679688 216.660156 153.601562 215.179688 C 144.421875 210.789062 136.4375 203.890625 129.878906 196.132812 C 121.898438 186.5 120.757812 173.613281 119.332031 161.753906 C 119.273438 157.476562 113.003906 154.113281 110.835938 158.902344 C 108.5 168.480469 111.179688 178.460938 112.261719 188.09375 C 114.03125 202.578125 121.328125 215.75 130.792969 226.582031 C 141.855469 239.125 154.570312 250.015625 166.316406 261.933594 C 169.621094 253.378906 172.128906 244.601562 172.757812 235.535156 Z M 172.757812 235.535156 " fill-opacity="1" fill-rule="nonzero"/><path fill="#627444" d="M 254.976562 178.117188 C 253.550781 190.148438 252.070312 202.691406 246.027344 213.46875 C 235.535156 232.453125 218.199219 246.023438 203.148438 261.078125 C 198.816406 265.46875 193.054688 269.230469 191.6875 275.617188 C 187.125 292.609375 182.792969 309.941406 181.765625 327.5625 L 181.765625 329.554688 L 179.144531 329.554688 C 168.539062 330.183594 157.933594 329.5 147.328125 329.785156 C 147.839844 328.300781 148.355469 326.820312 148.867188 325.335938 C 155.996094 301.21875 166.542969 278.242188 174.867188 254.519531 C 179.085938 243.746094 177.035156 231.429688 182.851562 221.164062 C 189.921875 206.855469 202.976562 197.105469 215.121094 187.410156 C 217.574219 185.53125 220.367188 184.273438 223.046875 182.90625 C 224.585938 196.589844 211.53125 204.515625 204.972656 214.722656 C 207.027344 216.773438 209.589844 220.253906 212.839844 217.859375 C 225.957031 210.445312 238.839844 199.667969 242.945312 184.558594 C 245.171875 177.605469 244.601562 170.132812 246.597656 163.179688 C 247.792969 159.359375 252.753906 158.046875 254.804688 161.980469 C 256.0625 167.339844 255.433594 172.8125 254.976562 178.117188 Z M 254.976562 178.117188 " fill-opacity="1" fill-rule="nonzero"/><path fill="#627444" d="M 136.039062 197.730469 C 138.433594 186.441406 144.476562 175.152344 141.96875 163.40625 C 141.054688 163.007812 139.230469 162.152344 138.261719 161.753906 C 135.238281 170.191406 132.21875 178.6875 128.683594 186.953125 C 130.964844 190.660156 133.414062 194.253906 136.039062 197.730469 Z M 136.039062 197.730469 " fill-opacity="1" fill-rule="nonzero"/><path fill="#627444" d="M 232.054688 197.84375 C 234.335938 193.738281 237.871094 189.75 238.15625 184.960938 C 235.761719 176.691406 232.511719 168.59375 228.863281 160.726562 C 227.097656 164.035156 224.132812 167.511719 225.441406 171.558594 C 227.039062 180.453125 229.890625 189.066406 232.054688 197.84375 Z M 232.054688 197.84375 " fill-opacity="1" fill-rule="nonzero"/><path fill="#627444" d="M 198.699219 272.367188 C 193.054688 290.101562 189.636719 308.460938 187.125 326.820312 C 187.011719 327.5625 186.785156 329.042969 186.671875 329.839844 C 197.902344 329.785156 209.191406 329.839844 220.425781 329.785156 C 220.082031 328.300781 219.742188 326.820312 219.339844 325.394531 C 214.667969 306.976562 206.339844 289.757812 198.699219 272.367188 Z M 198.699219 272.367188 " fill-opacity="1" fill-rule="nonzero"/><path fill="#627444" d="M 167.457031 107.8125 C 167.511719 94.1875 179.714844 85.578125 187.527344 75.941406 C 195.507812 85.464844 206.796875 94.414062 207.480469 107.8125 C 208.679688 122.070312 195.449219 130.964844 187.46875 140.882812 C 179.429688 131.019531 166.429688 122.125 167.457031 107.8125 Z M 167.457031 107.8125 " fill-opacity="1" fill-rule="nonzero"/></svg>