<svg xmlns="http://www.w3.org/2000/svg" xmlns:xlink="http://www.w3.org/1999/xlink" width="500" zoomAndPan="magnify" viewBox="0 0 375 374.999991" height="500" preserveAspectRatio="xMidYMid meet" version="1.0"><defs><clipPath id="eb73359f25"><path d="M 178 17.277344 L 197 17.277344 L 197 46 L 178 46 Z M 178 17.277344 " clip-rule="nonzero"/></clipPath><clipPath id="cfb9e103d0"><path d="M 48.980469 131 L 63 131 L 63 145 L 48.980469 145 Z M 48.980469 131 " clip-rule="nonzero"/></clipPath><clipPath id="ea4b1b0d06"><path d="M 308 135 L 325.730469 135 L 325.730469 147 L 308 147 Z M 308 135 " clip-rule="nonzero"/></clipPath><clipPath id="f137fa4f0a"><path d="M 139 154 L 269 154 L 269 357.777344 L 139 357.777344 Z M 139 154 " clip-rule="nonzero"/></clipPath><clipPath id="6946b975a4"><path d="M 186 288 L 227 288 L 227 357.777344 L 186 357.777344 Z M 186 288 " clip-rule="nonzero"/></clipPath></defs><g clip-path="url(#eb73359f25)"><path fill="#627444" d="M 178.695312 31.308594 C 178.695312 25.324219 184.066406 21.585938 187.464844 17.371094 C 190.929688 21.519531 195.894531 25.460938 196.164062 31.308594 C 196.710938 37.5625 190.929688 41.4375 187.394531 45.789062 C 183.929688 41.4375 178.21875 37.5625 178.695312 31.308594 Z M 178.695312 31.308594 " fill-opacity="1" fill-rule="nonzero"/></g><path fill="#627444" d="M 136.882812 47.078125 C 135.933594 37.699219 143.613281 31.105469 148.917969 24.507812 C 155.308594 30.21875 163.941406 35.589844 164.554688 45.039062 C 165.574219 54.625 157.753906 61.355469 152.316406 68.085938 C 145.992188 62.171875 137.15625 56.664062 136.882812 47.078125 Z M 136.882812 47.078125 " fill-opacity="1" fill-rule="nonzero"/><path fill="#627444" d="M 210.171875 44.835938 C 210.917969 35.453125 219.484375 30.085938 225.941406 24.507812 C 231.246094 31.035156 239.128906 37.5625 237.90625 46.945312 C 237.769531 56.53125 228.796875 62.035156 222.542969 67.882812 C 216.898438 61.289062 209.015625 54.558594 210.171875 44.835938 Z M 210.171875 44.835938 " fill-opacity="1" fill-rule="nonzero"/><path fill="#627444" d="M 113.292969 36.8125 C 116.898438 38.175781 121.382812 38.855469 123.558594 42.457031 C 124.851562 46.332031 123.628906 50.480469 123.492188 54.488281 C 119.140625 54.21875 115.199219 52.449219 111.59375 50.207031 C 112.003906 45.71875 112.546875 41.234375 113.292969 36.8125 Z M 113.292969 36.8125 " fill-opacity="1" fill-rule="nonzero"/><path fill="#627444" d="M 251.300781 42.390625 C 253.542969 39.398438 257.28125 38.039062 260.339844 36 C 262.042969 40.417969 263.0625 45.109375 263.332031 49.933594 C 259.730469 52.179688 255.785156 53.945312 251.570312 54.828125 C 251.300781 50.75 249.941406 46.398438 251.300781 42.390625 Z M 251.300781 42.390625 " fill-opacity="1" fill-rule="nonzero"/><path fill="#627444" d="M 86.847656 70.941406 C 88.683594 66.25 92.558594 62.851562 95.617188 59.042969 C 99.765625 63.394531 105.953125 67.609375 105.066406 74.546875 C 105.203125 80.800781 99.359375 84.402344 95.6875 88.550781 C 91.402344 83.65625 84.878906 78.351562 86.847656 70.941406 Z M 86.847656 70.941406 " fill-opacity="1" fill-rule="nonzero"/><path fill="#627444" d="M 269.316406 74.339844 C 269.113281 67.679688 275.027344 63.328125 279.171875 58.976562 C 282.910156 64.007812 289.507812 68.765625 288.148438 75.90625 C 286.921875 81.140625 282.300781 84.605469 278.96875 88.617188 C 275.09375 84.402344 269.65625 80.59375 269.316406 74.339844 Z M 269.316406 74.339844 " fill-opacity="1" fill-rule="nonzero"/><path fill="#627444" d="M 123.558594 74.070312 C 133.6875 79.167969 146.0625 85.355469 148.035156 97.796875 C 150.890625 109.625 142.324219 119.480469 136.410156 128.660156 C 126.414062 122.882812 113.429688 116.898438 112.207031 103.847656 C 109.757812 92.289062 118.1875 83.179688 123.558594 74.070312 Z M 123.558594 74.070312 " fill-opacity="1" fill-rule="nonzero"/><path fill="#627444" d="M 226.691406 97.523438 C 228.796875 85.082031 241.238281 79.371094 251.164062 74 C 254.699219 79.914062 258.980469 85.492188 261.632812 91.949219 C 264.761719 100.992188 262.246094 111.9375 254.765625 118.121094 C 249.734375 122.269531 243.957031 125.394531 238.382812 128.726562 C 232.605469 119.414062 223.5625 109.488281 226.691406 97.523438 Z M 226.691406 97.523438 " fill-opacity="1" fill-rule="nonzero"/><path fill="#627444" d="M 66.25 76.652344 C 69.71875 76.925781 73.183594 77.332031 76.652344 77.671875 C 77.535156 81.546875 78.417969 85.355469 79.167969 89.296875 C 75.085938 88.820312 71.078125 88.140625 67.066406 87.121094 C 66.726562 83.585938 66.453125 80.121094 66.25 76.652344 Z M 66.25 76.652344 " fill-opacity="1" fill-rule="nonzero"/><path fill="#627444" d="M 63.9375 100.105469 C 72.4375 100.242188 82.632812 102.484375 86.371094 111.050781 C 90.996094 118.53125 86.78125 127.230469 84.539062 134.710938 C 77.261719 132.058594 68.152344 131.105469 63.667969 123.902344 C 58.976562 116.625 62.441406 107.789062 63.9375 100.105469 Z M 63.9375 100.105469 " fill-opacity="1" fill-rule="nonzero"/><path fill="#627444" d="M 288.28125 110.847656 C 292.226562 102.691406 302.015625 101.398438 309.699219 98.746094 C 312.007812 106.566406 316.292969 115.742188 311.328125 123.425781 C 307.183594 131.175781 297.664062 132.058594 290.1875 134.777344 C 288.011719 127.164062 283.796875 118.394531 288.28125 110.847656 Z M 288.28125 110.847656 " fill-opacity="1" fill-rule="nonzero"/><path fill="#627444" d="M 98.609375 132.261719 C 96.164062 127.097656 99.96875 122.199219 102.210938 117.78125 C 106.019531 121.046875 112.546875 123.289062 112.546875 129.269531 C 112.003906 133.078125 109.964844 136.410156 108.46875 139.945312 C 105.066406 137.632812 100.785156 135.933594 98.609375 132.261719 Z M 98.609375 132.261719 " fill-opacity="1" fill-rule="nonzero"/><path fill="#627444" d="M 262.3125 129.136719 C 262.109375 123.289062 268.5 120.910156 272.238281 117.644531 C 274.347656 121.726562 278.085938 126.007812 276.523438 130.902344 C 275.160156 135.660156 269.859375 137.292969 266.1875 139.875 C 264.828125 136.410156 262.515625 133.011719 262.3125 129.136719 Z M 262.3125 129.136719 " fill-opacity="1" fill-rule="nonzero"/><g clip-path="url(#cfb9e103d0)"><path fill="#627444" d="M 48.980469 131.992188 C 52.109375 132.941406 55.847656 132.671875 58.5 134.777344 C 61.152344 137.226562 61.492188 141.101562 62.511719 144.363281 C 58.226562 143.886719 54.011719 143.070312 49.933594 141.710938 C 49.527344 138.449219 49.253906 135.1875 48.980469 131.992188 Z M 48.980469 131.992188 " fill-opacity="1" fill-rule="nonzero"/></g><path fill="#627444" d="M 154.425781 132.875 C 162.308594 136.886719 171.757812 141.167969 174.273438 150.617188 C 177.335938 160.203125 170.195312 168.496094 165.980469 176.382812 C 158.300781 172.101562 148.917969 168.089844 146.265625 158.910156 C 142.730469 149.257812 150.207031 140.898438 154.425781 132.875 Z M 154.425781 132.875 " fill-opacity="1" fill-rule="nonzero"/><path fill="#627444" d="M 200.378906 151.027344 C 202.488281 141.304688 212.414062 136.953125 220.367188 132.941406 C 224.921875 141.101562 232.46875 150.210938 228.117188 160.066406 C 225.195312 168.703125 216.21875 172.304688 208.808594 176.316406 C 204.324219 168.632812 197.796875 160.542969 200.378906 151.027344 Z M 200.378906 151.027344 " fill-opacity="1" fill-rule="nonzero"/><g clip-path="url(#ea4b1b0d06)"><path fill="#627444" d="M 308.882812 145.585938 C 310.988281 141.304688 314.046875 137.703125 318.535156 135.867188 C 320.984375 136.953125 323.496094 137.972656 326.011719 139.0625 C 324.382812 141.507812 322.683594 143.957031 321.050781 146.402344 C 316.972656 146.199219 312.890625 145.925781 308.882812 145.585938 Z M 308.882812 145.585938 " fill-opacity="1" fill-rule="nonzero"/></g><path fill="#627444" d="M 293.042969 91.335938 C 294.265625 86.78125 296.578125 82.566406 300.585938 79.914062 C 303.238281 80.460938 305.890625 81.003906 308.542969 81.546875 C 307.386719 84.265625 306.230469 86.984375 305.074219 89.707031 C 301.0625 90.386719 297.050781 90.929688 293.042969 91.335938 Z M 293.042969 91.335938 " fill-opacity="1" fill-rule="nonzero"/><path fill="#627444" d="M 55.238281 155.105469 C 63.800781 158.300781 74.066406 161.085938 77.808594 170.402344 C 82.363281 178.015625 79.574219 186.988281 78.148438 195.078125 C 70.328125 191.882812 60.8125 189.707031 56.460938 181.617188 C 51.226562 173.730469 53.605469 163.808594 55.238281 155.105469 Z M 55.238281 155.105469 " fill-opacity="1" fill-rule="nonzero"/><path fill="#627444" d="M 295.488281 170.402344 C 300.113281 162.71875 309.222656 160.136719 317.109375 157.210938 C 318.332031 165.4375 321.253906 174.414062 316.632812 182.164062 C 312.824219 191.339844 302.421875 193.652344 294.265625 197.253906 C 292.496094 188.484375 289.847656 178.355469 295.488281 170.402344 Z M 295.488281 170.402344 " fill-opacity="1" fill-rule="nonzero"/><path fill="#627444" d="M 272.78125 206.566406 C 275.910156 204.054688 280.058594 203.507812 283.796875 202.285156 C 283.933594 207.042969 286.378906 212.617188 283.046875 216.765625 C 280.328125 220.640625 275.160156 220.4375 271.082031 221.726562 C 271.015625 216.832031 268.429688 210.441406 272.78125 206.566406 Z M 272.78125 206.566406 " fill-opacity="1" fill-rule="nonzero"/><path fill="#627444" d="M 85.761719 207.179688 C 90.453125 208.335938 94.871094 210.171875 98.8125 212.957031 C 98.609375 217.582031 98.335938 222.203125 97.863281 226.757812 C 93.78125 225.195312 88.277344 225.261719 85.828125 221.046875 C 83.175781 216.832031 85.285156 211.667969 85.761719 207.179688 Z M 85.761719 207.179688 " fill-opacity="1" fill-rule="nonzero"/><path fill="#627444" d="M 121.996094 152.65625 C 122.472656 150.617188 121.859375 148.917969 120.839844 147.421875 C 119.003906 144.773438 115.0625 144.839844 113.429688 147.558594 C 112.816406 148.578125 112.34375 149.734375 112.207031 151.027344 C 110.984375 160.542969 112.410156 170.128906 114.519531 179.375 C 118.1875 170.878906 120.976562 161.835938 121.996094 152.65625 Z M 121.996094 152.65625 " fill-opacity="1" fill-rule="nonzero"/><path fill="#627444" d="M 252.796875 152.726562 C 253 151.09375 252.523438 149.667969 251.84375 148.308594 C 250.074219 145.042969 245.453125 144.976562 243.6875 148.238281 C 243.210938 149.054688 242.9375 149.9375 243.007812 150.957031 C 243.140625 160.746094 246.542969 170.128906 250.347656 179.035156 C 251.300781 170.402344 252.929688 161.5625 252.796875 152.726562 Z M 252.796875 152.726562 " fill-opacity="1" fill-rule="nonzero"/><path fill="#627444" d="M 169.925781 244.773438 C 170.605469 235.460938 174.410156 226.757812 179.035156 218.738281 C 167.410156 202.082031 151.433594 188.484375 134.027344 178.289062 C 134.097656 182.976562 133.347656 188.144531 136.339844 192.222656 C 141.710938 200.925781 149.257812 207.929688 155.238281 216.152344 C 153.0625 218.261719 150.753906 222.273438 147.082031 220.503906 C 136.136719 215.269531 126.617188 207.042969 118.800781 197.796875 C 109.28125 186.308594 107.921875 170.945312 106.222656 156.804688 C 106.15625 151.707031 98.675781 147.695312 96.09375 153.40625 C 93.308594 164.828125 96.503906 176.722656 97.792969 188.210938 C 99.902344 205.480469 108.601562 221.183594 119.886719 234.101562 C 133.078125 249.058594 148.238281 262.042969 162.242188 276.25 C 166.183594 266.054688 169.175781 255.585938 169.925781 244.773438 Z M 169.925781 244.773438 " fill-opacity="1" fill-rule="nonzero"/><g clip-path="url(#f137fa4f0a)"><path fill="#627444" d="M 267.957031 176.316406 C 266.257812 190.660156 264.488281 205.617188 257.28125 218.464844 C 244.773438 241.105469 224.105469 257.285156 206.160156 275.230469 C 200.992188 280.464844 194.125 284.953125 192.496094 292.566406 C 187.054688 312.824219 181.890625 333.492188 180.664062 354.5 L 180.664062 356.878906 L 177.539062 356.878906 C 164.894531 357.625 152.25 356.8125 139.605469 357.152344 C 140.214844 355.382812 140.828125 353.617188 141.4375 351.847656 C 149.9375 323.089844 162.515625 295.695312 172.4375 267.414062 C 177.46875 254.5625 175.023438 239.878906 181.957031 227.644531 C 190.386719 210.578125 205.953125 198.953125 220.433594 187.398438 C 223.359375 185.152344 226.691406 183.65625 229.886719 182.027344 C 231.71875 198.34375 216.152344 207.792969 208.335938 219.960938 C 210.78125 222.410156 213.839844 226.554688 217.714844 223.699219 C 233.351562 214.863281 248.714844 202.011719 253.609375 183.996094 C 256.261719 175.703125 255.582031 166.796875 257.960938 158.503906 C 259.390625 153.949219 265.304688 152.386719 267.75 157.078125 C 269.246094 163.46875 268.5 169.992188 267.957031 176.316406 Z M 267.957031 176.316406 " fill-opacity="1" fill-rule="nonzero"/></g><path fill="#627444" d="M 126.144531 199.703125 C 129 186.242188 136.203125 172.78125 133.214844 158.777344 C 132.125 158.300781 129.949219 157.28125 128.792969 156.804688 C 125.191406 166.867188 121.589844 176.996094 117.375 186.851562 C 120.09375 191.273438 123.015625 195.554688 126.144531 199.703125 Z M 126.144531 199.703125 " fill-opacity="1" fill-rule="nonzero"/><path fill="#627444" d="M 240.625 199.835938 C 243.347656 194.941406 247.5625 190.183594 247.902344 184.472656 C 245.046875 174.617188 241.171875 164.960938 236.820312 155.582031 C 234.710938 159.523438 231.175781 163.671875 232.742188 168.496094 C 234.644531 179.101562 238.042969 189.367188 240.625 199.835938 Z M 240.625 199.835938 " fill-opacity="1" fill-rule="nonzero"/><g clip-path="url(#6946b975a4)"><path fill="#627444" d="M 200.855469 288.691406 C 194.125 309.835938 190.046875 331.726562 187.054688 353.617188 C 186.917969 354.5 186.648438 356.265625 186.511719 357.21875 C 199.90625 357.152344 213.367188 357.21875 226.757812 357.152344 C 226.351562 355.382812 225.941406 353.617188 225.464844 351.917969 C 219.890625 329.957031 209.964844 309.425781 200.855469 288.691406 Z M 200.855469 288.691406 " fill-opacity="1" fill-rule="nonzero"/></g><path fill="#627444" d="M 163.601562 92.492188 C 163.667969 76.246094 178.21875 65.980469 187.53125 54.488281 C 197.050781 65.84375 210.511719 76.515625 211.324219 92.492188 C 212.753906 109.488281 196.980469 120.09375 187.464844 131.921875 C 177.878906 120.160156 162.378906 109.554688 163.601562 92.492188 Z M 163.601562 92.492188 " fill-opacity="1" fill-rule="nonzero"/></svg>